<svg width="56" height="57" fill="none" xmlns="http://www.w3.org/2000/svg"><path d="M3 10.286a7.3 7.3 0 012.126-5.152A7.246 7.246 0 0110.26 3h3.63c1.925 0 3.771.768 5.132 2.134a7.3 7.3 0 012.127 5.152v36.428a7.3 7.3 0 01-2.127 5.152A7.246 7.246 0 0113.888 54H10.26a7.246 7.246 0 01-5.133-2.134A7.3 7.3 0 013 46.714V10.286zm32.666 0a7.3 7.3 0 012.126-5.152A7.246 7.246 0 0142.925 3h3.629c1.925 0 3.772.768 5.133 2.134a7.3 7.3 0 012.126 5.152v36.428a7.3 7.3 0 01-2.126 5.152A7.246 7.246 0 0146.554 54h-3.63a7.246 7.246 0 01-5.132-2.134 7.3 7.3 0 01-2.127-5.152V10.286z" stroke="#6EA0A6" stroke-width="4.375" stroke-linejoin="round"/></svg>